<svg width="18" height="18" viewBox="0 0 18 18" fill="none" xmlns="http://www.w3.org/2000/svg">
<path d="M17.761 8.85714C17.761 4.125 13.9217 0.285713 9.18959 0.285713C4.45745 0.285713 0.618164 4.125 0.618164 8.85714C0.618164 12.3728 2.72754 15.3862 5.75209 16.7143C5.72977 16.1116 5.74093 15.3862 5.89718 14.7388C5.89718 14.7388 6.06459 14.0469 7.00209 10.0737C6.72308 9.52679 6.72308 8.71205 6.72308 8.71205C6.72308 7.43973 7.45968 6.49107 8.37486 6.49107C9.15611 6.49107 9.53558 7.08259 9.53558 7.78571C9.53558 8.56696 9.03334 9.73884 8.77665 10.8214C8.56459 11.7366 9.23424 12.4732 10.1271 12.4732C11.7566 12.4732 12.8503 10.3862 12.8503 7.91964C12.8503 6.03348 11.578 4.62723 9.27888 4.62723C6.67843 4.62723 5.06013 6.5692 5.06013 8.73437C5.06013 9.48214 5.28334 10.0067 5.62933 10.4196C5.78558 10.6094 5.8079 10.6763 5.75209 10.8996C5.70745 11.0558 5.61816 11.4353 5.57352 11.5804C5.51772 11.8036 5.33915 11.8817 5.14941 11.8036C3.95522 11.3125 3.39718 9.99554 3.39718 8.52232C3.39718 6.08929 5.45075 3.16518 9.51325 3.16518C12.7945 3.16518 14.9485 5.54241 14.9485 8.07589C14.9485 11.4464 13.0735 13.9576 10.3168 13.9576C9.39049 13.9576 8.51995 13.4554 8.22977 12.8862C7.72754 14.8616 7.62709 15.2411 7.62709 15.2411C7.44852 15.8996 7.08022 16.558 6.75656 17.0714C7.53781 17.3058 8.34138 17.4286 9.18959 17.4286C13.9217 17.4286 17.761 13.5893 17.761 8.85714Z" fill="white"/>
</svg>
