<svg width="19" height="15" viewBox="0 0 19 15" fill="none" xmlns="http://www.w3.org/2000/svg">
<path d="M18.5081 2.41071C17.8608 2.68973 17.1576 2.89062 16.4322 2.96875C17.18 2.52232 17.7492 1.8192 18.017 0.982143C17.3251 1.39509 16.5438 1.69643 15.7291 1.85268C15.0706 1.14955 14.1331 0.714285 13.0951 0.714285C11.0974 0.714285 9.49023 2.33259 9.49023 4.3192C9.49023 4.59821 9.52372 4.87723 9.57952 5.14509C6.58845 4.98884 3.92104 3.56027 2.14648 1.37277C1.83398 1.90848 1.65541 2.52232 1.65541 3.19196C1.65541 4.44196 2.29157 5.54687 3.26256 6.1942C2.67104 6.17187 2.113 6.00446 1.63309 5.73661C1.63309 5.74777 1.63309 5.77009 1.63309 5.78125C1.63309 7.53348 2.87193 8.98438 4.52372 9.3192C4.22238 9.39732 3.89872 9.44196 3.57506 9.44196C3.34068 9.44196 3.11747 9.41964 2.89425 9.38616C3.35184 10.8147 4.67997 11.8527 6.26479 11.8862C5.02595 12.8571 3.47461 13.4263 1.78934 13.4263C1.488 13.4263 1.20898 13.4152 0.918806 13.3817C2.51479 14.4085 4.41211 15 6.45452 15C13.084 15 16.7112 9.50893 16.7112 4.7433C16.7112 4.58705 16.7112 4.4308 16.7001 4.27455C17.4032 3.76116 18.017 3.125 18.5081 2.41071Z" fill="white"/>
</svg>
