<svg width="54" height="54" viewBox="0 0 54 54" fill="none" xmlns="http://www.w3.org/2000/svg">
<path fill-rule="evenodd" clip-rule="evenodd" d="M36.1175 6.11654C43.4961 13.4952 44.0383 25.1603 37.8158 33.4036L53.9362 49.524L50.112 53.3483L34.0438 37.2801C25.7792 43.8847 13.808 43.4651 6.28842 35.9456C-1.79674 27.8604 -1.6736 14.6287 6.56347 6.3916C14.8005 -1.84547 28.0323 -1.96862 36.1175 6.11654ZM34.5878 7.64624C41.8437 14.9021 41.7332 26.7768 34.3409 34.1691C26.9487 41.5613 15.074 41.6718 7.81811 34.4159C0.562202 27.16 0.672716 15.2853 8.06496 7.89308C15.4572 0.500839 27.3319 0.390324 34.5878 7.64624Z" fill="#2B4074"/>
</svg>
