<svg width="27" height="18" viewBox="0 0 27 18" fill="none" xmlns="http://www.w3.org/2000/svg">
<path d="M16.9217 9.04687C16.9217 8.51116 16.8659 8.09821 16.7878 7.68527H9.06459V10.4978H13.7075C13.5177 11.692 12.3012 14.0246 9.06459 14.0246C6.27441 14.0246 3.99763 11.7143 3.99763 8.85714C3.99763 6 6.27441 3.68973 9.06459 3.68973C10.6606 3.68973 11.7208 4.37054 12.3235 4.95089L14.5445 2.8192C13.1159 1.47991 11.2744 0.676338 9.06459 0.676338C4.5445 0.676338 0.883789 4.33705 0.883789 8.85714C0.883789 13.3772 4.5445 17.0379 9.06459 17.0379C13.7856 17.0379 16.9217 13.7232 16.9217 9.04687ZM26.5981 7.68527H24.2655V5.35268H21.9217V7.68527H19.5891V10.029H21.9217V12.3616H24.2655V10.029H26.5981V7.68527Z" fill="white"/>
</svg>
